# xmcd
#
# Track frame offsets:
#	150
#	14457
#	27919
#	49032
#	66983
#	77755
#	91871
#	107881
#	127023
#	141677
#	159127
#	174079
#	193454
#	206766
#	222950
#	230442
#	246932
#	259986
#	276561
#	295740
#	310247
#
# Disc length: 4338 seconds
#
# Revision: 2
# Processed by: cddbd v1.5.2PL0 Copyright (c) Steve Scherf et al.
# Submitted via: dBpowerAMP V4.0
#
DISCID=4210f015
DTITLE=Various Artist - Hott Urban Volume 38 Canada
DYEAR=2018
DGENRE=Urban
TTITLE0=Kanye West - Yikes
TTITLE1=Jeremih X Ty Dolla $ign - The Light
TTITLE2=Chris Brown - Hope You Do
TTITLE3=YG ft. 2 Chainz, Big Sean and Nicki Minaj - Big Bank
TTITLE4=Famous Dex - Japan
TTITLE5=Derez De'Shon - Fed Up
TTITLE6=G-Eazy ft. Yo Gotti and YBN Nahmir - 1942
TTITLE7=Young Thug ft. Nicki Minaj - Anybody
TTITLE8=Belly ft. The Weeknd - What You Want
TTITLE9=Tyga ft. Offset - Taste
TTITLE10=Russ - Back To Life
TTITLE11=Swae Lee ft. Slim Jxmmi - Guatemala
TTITLE12=City Girls - I'll Take Your Man
TTITLE13=Jay Rock - Win
TTITLE14=YBN Nahmir - Bounce Out With That
TTITLE15=Andy Stokes - Best Day Ever
TTITLE16=A Boogie Wit Da Hoodie ft. Davido - Way Too Fly
TTITLE17=Peabo Bryson - Love Like Yours And Mine
TTITLE18=A.Chal ft. 2 Chainz and Nicky Jam - Love and Hennessy [Remix]
TTITLE19=J. Cole - Kod
TTITLE20=Pusha T - If You Know You Know
EXTD=
EXTT0=
EXTT1=
EXTT2=
EXTT3=
EXTT4=
EXTT5=
EXTT6=
EXTT7=
EXTT8=
EXTT9=
EXTT10=
EXTT11=
EXTT12=
EXTT13=
EXTT14=
EXTT15=
EXTT16=
EXTT17=
EXTT18=
EXTT19=
EXTT20=
PLAYORDER=
